# xmcd
#
# Track frame offsets:
#	150
#	16512
#	35070
#	48867
#	70280
#	87717
#	103325
#	116395
#	130402
#	148090
#	162390
#	178205
#	186690
#
# Disc length: 2728 seconds
#
# Revision: 1
# Processed by: cddbd v1.5.2PL0 Copyright (c) Steve Scherf et al.
# Submitted via: audiograbber 1.83.01
#
DISCID=c40aa60d
DTITLE=Sammy's Saloon - Sammy's Saloon '99
DYEAR=1999
DGENRE=Country
TTITLE0=Sammy's Saloon - Treasures
TTITLE1=Sammy's Saloon - Die Haerteste Enttaeuschung
TTITLE2=Sammy's Saloon - Boogie and Beethoven
TTITLE3=Sammy's Saloon - City Of New Orleans
TTITLE4=Sammy's Saloon - Leaving On A Jetplane
TTITLE5=Sammy's Saloon - On The Road Of Love
TTITLE6=Sammy's Saloon - Harburger Berge
TTITLE7=Sammy's Saloon - Don't
TTITLE8=Sammy's Saloon - Sehnsucht
TTITLE9=Sammy's Saloon - Ich Moecht Dein Herz Schlagen Hoer'n
TTITLE10=Sammy's Saloon - Tulsa Time
TTITLE11=Sammy's Saloon - Bonanza
TTITLE12=Sammy's Saloon - Idaho
EXTD=
EXTT0=
EXTT1=
EXTT2=
EXTT3=
EXTT4=
EXTT5=
EXTT6=
EXTT7=
EXTT8=
EXTT9=
EXTT10=
EXTT11=
EXTT12=
PLAYORDER=
